<svg height="933pt" preserveAspectRatio="xMidYMid meet" viewBox="0 0 900 933" width="900pt" xmlns="http://www.w3.org/2000/svg"><g transform="matrix(.1 0 0 -.1 0 933)"><path d="m4635 8967c16-12 41-33 55-45 21-20 22-23 5-17-149 49-201 58-395 62-131 4-212 1-250-7-68-15-282-86-330-110-175-87-384-179-458-201-23-7-40-14-38-17 3-2-28-20-67-39-313-150-425-213-527-295-19-15-46-37-60-48-98-76-168-152-248-269-57-83-147-301-192-466-10-38-31-99-46-135-77-182-67-399 31-669 13-36 39-109 58-161s43-128 53-168c11-44 23-71 30-68s14-20 18-67c8-82 14-108 62-264 20-62 34-122 32-134-2-14-23-32-63-53-47-26-66-43-88-82-38-68-36-95 43-454 37-174 115-472 135-521 43-107 96-190 164-259 71-73 195-151 275-175 64-19 182-19 219 0 27 14 28 13 38-13 14-37 27-162 33-327l5-140-117-86c-64-47-204-145-309-218l-193-132-272-100c-434-160-454-167-633-241-335-139-426-173-485-182-35-6-37-5-59 41-34 70-74 183-111 313-62 219-69 245-80 305-7 33-16 80-21 105-63 309-73 812-24 1170 83 610 306 1167 669 1675 92 129 194 248 363 427l63 66v122 121l-28-19c-72-53-350-345-460-484-88-113-88-112-203-284-86-128-217-368-290-529-111-247-220-586-268-835-6-30-15-78-21-106-47-215-67-696-42-984 19-221 52-422 102-622 33-129 107-361 157-488 41-104 205-450 250-525 55-93 122-198 162-253 25-34 63-86 84-115 218-303 567-646 880-865 473-331 966-542 1517-651 541-107 1155-90 1692 45 599 150 1144 434 1616 841 163 141 445 443 565 605 51 69 67 93 202 298 83 126 275 496 275 530 0 6 11 32 24 59 72 141 196 580 234 831 37 234 43 301 48 528 15 593-73 1059-307 1634-63 154-230 467-328 612-190 283-290 403-561 670-129 127-155 151-287 258-130 105-347 252-478 323-72 40-86 44-91 30-10-24 28-207 46-224 8-9 49-36 90-61 85-51 271-183 375-266 86-70 426-410 483-484 23-30 63-80 87-110 159-193 387-587 500-860 89-216 166-475 214-720 6-30 15-77 21-105 46-224 46-935 0-1175-6-30-16-80-21-110-18-96-30-144-46-182-18-44-37-47-118-23-45 14-102 30-310 85-38 11-113 31-165 45-52 15-126 35-165 45-177 48-305 83-365 101-36 10-132 37-215 60-150 41-186 53-280 91-70 29-198 120-271 193-22 22-56 52-76 67s-50 48-67 74l-32 46 51 153c39 119 50 168 50 217 0 62 2 67 69 169 151 229 181 307 181 468 0 58-5 122-10 141-40 137-60 259-61 374 0 66-4 141-9 166-47 257-48 269-16 550 24 211 17 353-29 570-16 75-17 98-7 190 7 58 12 136 12 173 0 72-23 222-45 301-18 60-100 215-149 281-20 28-51 84-69 125-87 200-264 393-509 552-78 51-287 158-378 193-41 16-79 32-85 36-13 8-218 72-305 94-36 9-81 20-100 25l-35 9zm435-318c213-69 376-167 538-324 119-114 176-189 226-296 50-109 53-133 6-57-44 73-66 96-50 53 18-46 11-41-35 29-60 92-147 197-208 252-110 99-286 203-467 276-95 38-78 42 35 7 32-10 61-17 63-15 1 2-48 25-110 50-187 78-186 85 2 25zm-716 6c146-31 261-129 341-291 39-79 43-110 6-50-12 19-39 50-61 69-37 34-98 72-105 65-2-2 8-35 21-75 50-148 78-373 57-453l-9-34-32 68c-99 211-286 391-503 482-147 62-287 92-474 103-138 8-135 13 35 58 123 33 327 38 430 10 123-33 226-92 316-181l83-82-30 57c-61 114-170 211-268 240-41 12-43 14-20 20 42 12 141 9 213-6zm-638-286c107-14 129-28 44-29-36-1-83-5-105-9l-40-7 50-8c27-4 72-17 101-27 55-21 144-76 144-89 0-4-28 1-62 11-240 75-581 67-873-20-55-16-101-28-103-27-6 7 150 60 273 92l130 34-85-6c-47-3-118-10-158-15-41-6-76-9-78-6-3 3 35 19 83 37 223 81 425 101 679 69zm-482-539c43-11 157-27 255-35 252-22 402-55 521-115 60-31 144-89 138-96-3-2-36 3-74 10-119 25-236 29-394 15-119-10-168-10-240-1-150 20-300 85-412 179-60 49-59 59 1 28 82-41 219-83 311-94 127-16 135-13 30 14-110 29-243 91-283 133l-29 30 49-24c26-13 83-33 127-44zm2153-285c59-8 133-16 163-17l55-3-45-22c-25-12-65-25-88-29s-42-9-41-13c0-3 28-19 62-36 42-20 88-56 142-110 140-140 192-254 263-575 28-124 53-245 57-269l7-45-27 18c-15 10-25 14-23 9 61-127 70-166 56-262-10-73-9-83 30-241 52-210 108-486 124-612 6-54 15-95 19-91 4 5 15 44 25 88 20 89 23 236 10 446-10 147-5 182 26 177 11-2 30-16 42-31 18-25 20-43 22-195 1-153 4-178 33-292 39-151 48-235 31-314-13-65-106-255-150-308l-27-32-7 84c-9 107-15 130-31 130-15 0-39-96-50-195-10-88-14-99-31-84-22 18-26 6-9-34 18-44 13-46-27-12-16 14-39 25-50 25-19 0-20-2-6-17 9-10 23-33 32-50 16-32 16-33-2-33s-18-3 4-47c13-25 24-55 24-65 0-17-2-17-30 3-37 28-44 22-26-22 7-19 16-53 20-77l6-43-30 22c-35 27-43 22-31-17 5-16 12-54 16-84l6-55-29 28-29 28 5-81c3-53 1-80-6-80-6 0-13 9-17 19-3 11-18 27-32 36-25 17-26 17-19-1 8-20 26-119 26-143 0-9-13-2-35 19-38 37-51 36-37-1 5-13 12-43 16-67l6-43-33 25c-51 39-57 32-31-32 34-83 30-92-21-42l-46 45 17-45c9-25 18-85 21-135l4-90-24 56c-27 65-52 102-97 144l-31 30 11-30c17-43 40-170 40-217v-40l-31 27c-17 14-33 24-35 23-1-2 2-25 8-52 5-26 7-69 3-94l-7-46-30 77c-21 56-43 92-80 130-28 29-47 43-43 32 17-52 35-156 35-209v-60l-36 60c-36 61-81 114-96 114-5 0-2-12 6-28 18-34 36-131 36-191v-45l-29 45c-26 42-74 89-91 89-4 0 4-22 17-49 13-26 27-75 30-107l6-59-30 28c-16 15-32 27-35 27-4 0-10-15-13-32-9-42-33-88-45-88-6 0-10 13-10 29s-8 39-19 52l-18 23-7-35c-3-20-12-44-20-54-13-18-16-17-42 27-16 26-32 48-35 48-4 0-9-22-13-50-4-27-11-52-16-55-4-3-19 15-31 40-12 24-34 56-49 70l-28 27 5-46c3-24 2-57-1-72-7-25-9-24-35 32-16 32-45 74-64 93l-36 34 15-48c14-49 19-95 8-95-3 0-32 20-64 45-57 44-91 100-75 125 12 20-12 10-34-14-19-20-22-33-20-69 4-39 2-44-12-36-22 12-75 93-90 137-11 33-13 34-25 17-8-10-14-31-14-47 0-37-11-35-47 10-40 50-63 95-72 145l-8 42-18-40c-12-29-16-58-13-108l4-69-23 28c-50 62-91 231-79 324l6 45-20-23c-26-32-50-114-50-176l-1-51-21 40c-45 86-98 274-98 353l-1 37-14-27c-17-30-45-192-45-256 0-54-12-48-49 26-35 70-51 119-66 197l-11 60-12-63c-7-34-15-62-17-62-7 0-53 154-60 205-7 45-9 47-17 25-6-14-13-59-17-100l-6-75-27 45c-34 58-84 206-100 298-7 40-15 72-19 72-3 0-15-28-25-62-13-46-18-95-18-183l1-120-29 88c-34 107-58 237-59 326 0 66 0 66-13 31-8-20-19-68-26-108-19-104-34-78-34 56 0 59 3 120 8 136 6 26 5 28-8 17-23-19-54-110-62-179-3-34-10-59-15-56-15 9-10 224 5 284 8 30 13 56 12 58-5 5-53-62-80-113l-27-50 4 75 5 74-24-29c-26-33-35-13-9 21 20 26 19 36-5 29-19-6-19-2-15 107l5 113-15-60c-9-32-24-74-35-93-11-18-20-45-20-59 0-39-30-94-64-114-99-60-226-20-379 121-92 84-121 151-186 430-16 69-50 198-75 288-79 283-82 370-15 426 60 51 106 33 249-93 279-246 365-407 419-783l17-118 22 16c56 39 63 105 34 312-15 103-18 191-18 462l1 335 51 157c29 86 63 181 77 212 30 65 28 65-72-9-74-54-74-54 41 92 168 215 328 440 388 546l33 59-97-76c-95-74-183-132-191-125-2 2 31 33 72 69 143 123 297 300 330 379 8 18 13 35 11 37-2 1-46-14-98-35-103-41-219-75-227-68-2 3 22 22 54 42 32 21 111 76 177 122 181 130 273 165 431 164 115 0 175-17 359-96 83-36 152-63 154-60 2 2-2 21-8 41-12 37-93 127-155 173-24 18-25 20-5 10 50-24 116-75 191-146l77-74 27 46c32 56 81 112 109 127 20 10 20 10 5-8-19-22-43-68-54-103-7-21 0-19 46 21 30 25 87 67 127 93 164 105 291 130 509 100zm-1347-34c36-12 72-26 80-32 12-9 11-10-5-4-11 4-61 9-111 12-216 13-510-57-868-208-186-79-255-99-357-106-101-7-203 13-294 56-63 30-171 109-161 118 3 3 11 1 18-4s33-17 58-26 36-11 26-4c-34 21-107 90-118 111-10 18-9 18 23-3 110-73 248-111 406-111 86 0 135 5 255 26 16 2 52 14 80 25 175 70 412 139 568 164 120 20 315 13 400-14zm2096-78c18-84 15-215-8-288l-12-40-7 90c-11 140-10 327 0 320 6-3 17-40 27-82zm-3091-249c-174-109-354-155-489-125-51 11-166 74-166 91 0 4 22 0 48-10 151-58 392-39 574 44 69 32 83 32 33 0zm100-610c-130-93-332-170-537-205-162-28-188-20-48 15 177 44 436 132 530 180 105 54 119 56 55 10zm2938-2587c45-40 119-100 163-134l82-62 16-88c57-316 65-656 21-956-24-164-82-381-183-684-103-307-211-603-222-603-8 0-517 671-526 693-2 7 43 94 102 192 216 362 293 532 364 809 69 268 79 380 57 641-13 140-13 140 13 202 14 35 26 63 28 63s40-33 85-73zm-2782-163c97-126 270-267 487-397 398-237 691-366 922-404 96-16 109-16 233 1 268 36 455 101 556 192 94 85 215 258 326 466l52 99 6-38c10-59 8-241-3-313-16-100-64-282-110-415-79-230-235-521-447-834-94-139-111-157-405-443l-306-299-159 67-159 67-76 106c-241 338-427 655-551 941-53 122-127 334-127 365 0 8-4 15-8 15s-16-40-25-88c-25-119-28-124-67-87-57 54-147 198-154 246-12 90-25 312-31 542-3 131-9 245-12 253-12 32 17 11 58-42zm3174-127c11-8 52-22 90-31 209-51 973-274 1382-402l111-35-15-47c-120-369-308-753-423-867-33-33-61-57-64-54-2 2 2 38 9 79 41 233 45 559 10 670-10 30-19 51-21 45-2-5-19-113-39-240-51-326-120-575-255-925l-52-135-109-107c-289-282-590-495-964-678-286-141-530-228-830-295-205-46-590-94-608-75-5 4-7 113-5 242l3 233 104 140c57 77 185 263 284 413 160 241 183 271 194 256 23-32 15-112-23-223-57-166-79-317-51-355 12-17 19-12 82 53 37 39 72 71 76 71 20 0 15-54-30-285-27-137-48-251-47-251 0-1 129 110 285 247s287 249 291 249c3 0 30-29 58-65 29-36 56-65 61-65s41 75 81 166c312 718 424 1147 437 1674 6 241-4 373-38 518-10 46-19 85-19 88 0 8 16 4 35-9zm-3395-129c0-13 5-99 10-193 27-443 94-771 200-973 68-130 390-519 645-780 138-141 149-156 160-214l7-37-76 23c-42 13-76 22-76 20s128-177 285-389 293-397 302-412l17-26-189 6c-516 16-1017 142-1491 373l-112 54-113 188c-130 215-457 749-613 997-58 93-116 175-129 182-12 7-35 12-51 13-23 0-27-3-22-17 4-10 97-180 206-379 110-199 202-368 206-377 3-9-118 66-269 166-152 101-313 205-360 232-78 46-90 58-155 150-126 179-313 508-295 518 4 2 300 120 657 262 453 180 651 254 656 245 4-6 10-64 13-128 12-212 61-567 142-1027 47-263 152-795 159-802 2-2 18 13 35 33 17 21 34 35 37 31 4-4 23-58 41-119 19-62 38-118 42-126 5-9 69 51 221 208 117 121 219 220 226 218 14-3 234-206 559-516 121-115 221-209 222-208s-65 135-147 298c-83 163-150 301-150 306 0 6 14 19 30 29 17 10 28 23 26 30-4 11-420 600-466 659-15 21-21 15-260-242-135-145-268-290-297-321-28-32-54-55-58-52-9 10-78 371-129 674-60 362-107 745-105 860 0 37 3 33 33-50 40-110 110-246 114-223 2 9-2 43-8 75-14 75-24 467-13 515 7 33 24 50 163 153 85 63 158 115 162 115 5 0 8-10 8-22zm-1236-1835c111-98 316-296 312-301-7-6-207 172-301 267-74 75-81 96-11 34z"/><path d="m5415 6404c-100-18-242-56-318-84-59-22-95-58-115-115l-10-30-1 31c-1 17 6 53 14 79 8 27 13 51 11 53-10 10-78-88-94-138l-20-57 39-194c22-107 55-279 75-384 42-223 90-377 144-460 21-33 43-79 48-102 21-94-33-203-127-256-76-43-125-42-221 6-64 31-85 37-140 37-68 0-123-20-170-60l-25-21 35 6c19 3 64 8 100 11 60 5 68 3 105-22 38-27 46-28 145-28 100 1 109 3 180 37 41 20 99 41 129 47 102 19 151 72 151 162 0 54-31 120-111 239-34 52-71 116-81 143-29 74-64 224-98 410-52 291-41 344 83 401 84 39 215 77 342 101 70 12 133 15 281 12l192-4-27 35c-41 54-136 119-208 141-77 24-189 25-308 4z"/><path d="m3987 6239c-174-20-350-71-462-134-80-44-172-128-204-185l-24-43 44 30c24 17 55 36 69 43l25 13-26-34c-14-19-29-45-34-58-7-22-5-22 56 12 85 47 198 91 284 110 139 31 352 50 515 44 199-6 250-21 284-80 29-50 54-124 91-272 36-147 35-144 45-120 14 34 11 108-10 230-23 135-24 161-9 252 14 80 3 132-36 178-23 26-25 27-20 8 8-27-2-29-27-6-17 15-20 15-43-7l-25-24-68 17c-135 35-278 44-425 26z"/><path d="m5635 6094c-93-11-195-29-310-55-104-24-135-35-158-57-30-28-102-140-95-147 2-2 26 2 53 10 31 10 93 15 179 15 148 0 277 17 390 50l77 23-38 39c-40 41-38 47 6 23 16-8 48-19 72-24l44-10-72 70c-74 70-76 71-148 63zm29-100c31-25 56-49 56-54 0-7-82-40-100-40-3 0-4 18-2 39 5 45-11 79-41 91-21 8-21 9 5 9 17 1 46-15 82-45zm-292-40c-3-33 1-50 13-65 18-19 17-19-51-18-38 1-94 4-124 7l-54 7 69 51c68 51 89 60 130 63 18 1 20-4 17-45zm179 36c26-14 24-55-3-74-19-13-25-14-43-2-27 18-32 56-9 73 22 16 30 16 55 3zm-94-52c-3-8-6-5-6 6-1 11 2 17 5 13 3-3 4-12 1-19z"/><path d="m4050 5943c-135-13-229-27-251-38-23-12-137-155-124-155 17 0 83 34 102 52 13 12 23 16 23 10 0-20-44-61-100-92-30-17-44-28-30-24 93 26 131 34 180 36l55 1-55 6c-30 3-54 9-53 14 1 4 19 32 40 61 42 60 67 76 119 76 31 0 34-2 24-19-18-35-12-80 16-108l26-26 157 8c86 5 184 8 218 7l63-1-41 62c-23 34-58 79-77 100l-36 37-111-2c-60 0-126-3-145-5zm261-95c81-65 91-78 62-76-10 1-55-2-101-6l-83-8 17 26c16 26 16 65-1 109-14 35 28 17 106-45zm-151 22c11-11 20-25 20-32 0-18-31-48-51-48-17 0-49 35-49 52 0 11 38 48 50 48 6 0 19-9 30-20zm-90-52c0-5-4-8-10-8-5 0-10 10-10 23 0 18 2 19 10 7 5-8 10-18 10-22z"/><path d="m2423 5548c-11-5-29-25-39-43-22-41-15-132 14-196l21-44-6 86c-5 83-5 87 16 94 29 9 80-24 130-84 22-26 41-53 43-59s-13-19-32-29c-54-28-72-73-67-163 9-127 17-142 152-257 75-65 123-99 129-93 14 14-9 112-49 200-44 98-45 141-4 221 37 70 35 83-20 165-61 91-137 170-184 193s-71 25-104 9z"/><path d="m4425 4958c-48-42-52-151-8-200 18-20 65-48 80-48 4 0-4 11-20 25-71 67-84 188-24 230 12 8 16 15 10 15-7 0-24-10-38-22z"/><path d="m4295 4903c-29-43-72-79-206-168-211-140-284-222-315-347-14-56-15-77-5-125 15-77 27-85 35-24 9 68 26 76 26 12 0-47 1-50 19-40 10 7 26 27 36 45 10 19 22 34 27 34s4-9-2-21c-23-42 17-34 42 9 9 15 33 43 54 62 39 36 38 33-11-42-20-32-18-33 32-13 21 8 48 30 60 48s37 41 55 52c33 19 33 18 18-1-8-10-23-30-35-43-16-20-17-23-3-18 9 3 33 9 52 12 25 5 41 16 55 39 22 34 71 84 71 71 0-4-10-23-21-42-12-19-19-36-17-39 3-2 30-2 60 2 55 6 56 7 68 48 6 22 31 78 55 123l44 83-32-17c-18-9-58-33-89-54-31-22-60-39-64-39-3 0-4 18 0 41 7 44 2 45-43 5l-24-21 6 23 5 22-31-22c-18-12-42-30-54-41-28-25-32-5-7 31 13 20 13 22 0 22-9 0-41-11-72-25-32-14-59-23-61-21-6 6 16 46 41 76 19 22 19 23 1 10-11-8-47-37-79-65-94-79-48-17 56 77 151 135 254 243 266 276 13 39 10 40-13 5z"/><path d="m5526 4769c4-8-3-9-25-4-17 4-31 4-31 1 0-2 36-24 79-47 117-62 160-101 55-50-121 60-256 102-208 66 18-14 18-14-11-15-26 0-19-6 50-43 44-23 103-59 130-79 55-40 139-125 95-95-184 124-309 187-378 194-46 4-44 3 80-66 274-151 331-206 358-350 9-48 3-113-16-166-14-42 78 95 125 185 60 116 81 185 81 264v61l-48 32c-74 50-148 83-230 104-86 22-116 24-106 8z"/><path d="m5170 4676c0-3 19-15 43-27 23-12 103-62 177-112 108-72 144-91 180-95l45-4-35 30c-61 53-194 131-281 166-97 39-129 50-129 42z"/><path d="m4660 4633c-44-50-71-114-77-184l-6-59h68 67l-8 38c-5 20-8 83-7 140 1 56 0 102-2 102s-18-17-35-37z"/><path d="m4990 4634c14-10 62-55 107-101l82-83h53l53 1-40 35c-76 68-196 143-255 158l-25 7z"/><path d="m4532 4586c-23-24-59-81-82-125-45-90-46-87 42-75l46 6 11 89c6 49 16 101 22 115 15 41 6 38-39-10z"/><path d="m5146 4622c5-4 50-45 100-90l92-82h63 64l-55 40c-72 52-312 172-264 132z"/><path d="m4793 4595c-10-18-43-163-43-187 0-13 57-3 77 13 18 15 16 72-6 139-15 49-18 53-28 35z"/><path d="m4900 4607c0-2 11-31 25-65s25-71 25-82c0-18 6-20 80-20 44 0 80 4 80 8 0 11-79 78-140 118-56 38-70 46-70 41z"/><path d="m4870 4493c0-17-4-43-10-57-10-28-2-34 18-14 14 14 16 67 2 88-7 11-10 7-10-17z"/><path d="m5390 4373c-371-110-484-128-717-113-207 13-419 13-483-1l-51-11 57-34c31-19 72-48 92-66 108-94 232-146 402-168 296-38 530 71 758 353 34 42 61 76 60 76-2-1-55-17-118-36zm-72-104c-34-60-91-107-183-150-116-55-238-83-360-83-148-1-217 20-367 111-68 41-125 77-127 79-15 14 22 13 130-2 86-13 189-18 334-18 194-1 219 1 320 26 61 14 142 37 180 51 98 34 100 34 73-14z"/><path d="m5210 3979c-48-41-139-83-240-111-76-20-107-23-291-23h-206l51-29c28-16 89-58 136-94 114-88 169-122 198-122 15 0 21 4 16 12s0 9 17 4c13-4 57-10 97-13 71-6 72-5 72 18 0 13 19 58 41 99 23 41 54 108 70 149 16 40 41 88 56 107 31 41 28 42-17 3z"/><path d="m3490 3520c191-223 372-404 510-511 70-55 281-202 326-227 7-4 28-97 48-217 20-115 56-309 79-430l42-220 6 100c4 55 7 280 8 500l1 400-58 18c-181 57-499 235-716 400-44 34-130 104-191 156l-110 95z"/><path d="m7147 3190c-3-25-13-106-22-180-46-387-152-769-294-1065-87-181-160-296-263-419-122-145-122-145-70-116 224 126 472 445 597 768 42 110 90 303 105 422 22 182 7 436-33 585l-14 50z"/></g></svg>